<svg width="14" height="14" viewBox="0 0 14 14" fill="none" xmlns="http://www.w3.org/2000/svg">
<g clip-path="url(#clip0)">
<path d="M0.4375 3.9375V1.3125C0.4375 0.8295 0.8295 0.4375 1.3125 0.4375H3.9375" stroke="#9098AC" stroke-width="1.5"/>
<path d="M10.0625 0.4375H12.6875C13.1705 0.4375 13.5625 0.8295 13.5625 1.3125V3.9375" stroke="#9098AC" stroke-width="1.5"/>
<path d="M13.5625 10.0625V12.6875C13.5625 13.1705 13.1705 13.5625 12.6875 13.5625H10.0625" stroke="#9098AC" stroke-width="1.5"/>
<path d="M3.9375 13.5625H1.3125C0.8295 13.5625 0.4375 13.1705 0.4375 12.6875V10.0625" stroke="#9098AC" stroke-width="1.5"/>
<path d="M7 10.0625C8.69137 10.0625 10.0625 8.69137 10.0625 7C10.0625 5.30863 8.69137 3.9375 7 3.9375C5.30863 3.9375 3.9375 5.30863 3.9375 7C3.9375 8.69137 5.30863 10.0625 7 10.0625Z" stroke="#9098AC" stroke-width="1.5" stroke-linecap="round" stroke-linejoin="round"/>
</g>
<defs>
<clipPath id="clip0">
<rect width="14" height="14" fill="#9098AC"/>
</clipPath>
</defs>
</svg>
