<svg xmlns="http://www.w3.org/2000/svg" xmlns:xlink="http://www.w3.org/1999/xlink" width="182.302" height="154.064" viewBox="0 0 182.302 154.064"><defs><style>.a{fill:#fff;}.b{filter:url(#c);}.c{filter:url(#a);}</style><filter id="a" x="30.6" y="0" width="151.702" height="117.287" filterUnits="userSpaceOnUse"><feOffset dy="3" input="SourceAlpha"/><feGaussianBlur stdDeviation="3" result="b"/><feFlood flood-opacity="0.161"/><feComposite operator="in" in2="b"/><feComposite in="SourceGraphic"/></filter><filter id="c" x="0" y="36.802" width="150.575" height="117.262" filterUnits="userSpaceOnUse"><feOffset dy="3" input="SourceAlpha"/><feGaussianBlur stdDeviation="3" result="d"/><feFlood flood-opacity="0.161"/><feComposite operator="in" in2="d"/><feComposite in="SourceGraphic"/></filter></defs><g transform="translate(-792.615 -400.879)"><g class="c" transform="matrix(1, 0, 0, 1, 792.62, 400.88)"><path class="a" d="M911.908,406.879c33.346-.011,61.21,22.514,67.949,54.2a62.165,62.165,0,0,1,1.291,17.225c-.068.99.192,1.227,1.172,1.224,3.357-.01,6.718-.154,10.072.079a4.859,4.859,0,0,1,1.275.267,1.737,1.737,0,0,1,1.177,2.467,6.668,6.668,0,0,1-1.57,2.436q-9.085,9.511-18.18,19.012c-2.976,3.092-6.854,3.2-9.868.1-6.282-6.449-12.46-13-18.668-19.521a7.1,7.1,0,0,1-1.062-1.462,1.846,1.846,0,0,1,1.1-2.954,8.273,8.273,0,0,1,2.971-.451c2.721,0,5.443-.024,8.163.013.728.01.983-.2,1.035-.95,1.566-22.856-12.981-43.049-35.3-48.125-17.326-3.941-32.326.87-44.654,13.726-.719.751-1.048.714-1.782.076q-7.567-6.578-15.224-13.054c-.641-.544-.664-.852-.1-1.474a68.967,68.967,0,0,1,50.2-22.841Z" transform="translate(-821.7 -400.88)"/></g><g class="b" transform="matrix(1, 0, 0, 1, 792.62, 400.88)"><path class="a" d="M883.614,577.921c-33.373.014-61.237-22.506-67.982-54.2a62.187,62.187,0,0,1-1.293-17.225c.066-.979-.174-1.237-1.165-1.231-2.988.019-5.979.148-8.964-.076a4.683,4.683,0,0,1-.891-.151q-2.431-.671-1.39-2.981a8.279,8.279,0,0,1,1.635-2.283q8.914-9.326,17.83-18.65c3.113-3.247,7.039-3.307,10.165-.069,6.159,6.381,12.263,12.817,18.388,19.23a6.7,6.7,0,0,1,1.284,1.795,1.783,1.783,0,0,1-1.041,2.689,7.644,7.644,0,0,1-3.057.518c-3.124.009-6.249.024-9.373-.011-.727-.008-.983.2-1.034.95-1.564,22.858,12.981,43.048,35.3,48.125,17.326,3.941,32.326-.868,44.654-13.724.716-.747,1.043-.721,1.781-.079q7.566,6.579,15.224,13.053c.639.542.671.849.1,1.474a68.917,68.917,0,0,1-50.173,22.843Z" transform="translate(-792.62 -435.86)"/></g></g></svg>